<svg id="Layer_1" data-name="Layer 1" xmlns="http://www.w3.org/2000/svg" viewBox="0 0 558.75 450.56"><defs><style>.cls-1{fill:none;stroke-width:18px;}.cls-1,.cls-2{stroke:#000;stroke-miterlimit:10;}</style></defs><title>logo_new2</title><path d="M285.56,474.66a45,45,0,0,1,31.82,76.82L209.2,659.66A45,45,0,0,1,145.56,596L253.74,487.84a44.7,44.7,0,0,1,31.82-13.18m0-18A62.79,62.79,0,0,0,241,475.11L132.83,583.3a63,63,0,0,0,0,89.09h0a63,63,0,0,0,89.09,0L330.11,564.2a63,63,0,0,0,0-89.09h0a62.8,62.8,0,0,0-44.55-18.45Z" transform="translate(-114.38 -456.66)"/><path d="M610.12,582.84A45,45,0,1,1,578.3,596a44.69,44.69,0,0,1,31.82-13.18m0-18a62.76,62.76,0,0,0-44.54,18.46h0a63,63,0,0,0,0,89.09h0a63,63,0,0,0,89.09,0h0a63,63,0,0,0,0-89.09h0a62.77,62.77,0,0,0-44.55-18.46Z" transform="translate(-114.38 -456.66)"/><path d="M501.94,691a45,45,0,0,1,31.82,76.82L425.57,876a45,45,0,1,1-63.64-63.64L470.12,704.21A44.7,44.7,0,0,1,501.94,691m0-18a62.8,62.8,0,0,0-44.55,18.45L349.2,799.67a63,63,0,0,0,0,89.1h0a63,63,0,0,0,89.1,0L546.49,780.58a63,63,0,0,0,0-89.1h0A62.83,62.83,0,0,0,501.94,673Z" transform="translate(-114.38 -456.66)"/><path d="M501.94,474.66a45,45,0,0,1,31.82,76.82L317.38,767.85a45,45,0,0,1-63.64-63.64L470.12,487.84a44.7,44.7,0,0,1,31.82-13.18m0-18a62.8,62.8,0,0,0-44.55,18.45L241,691.48a63,63,0,0,0,0,89.1h0a63,63,0,0,0,89.09,0L546.49,564.2a63,63,0,0,0,0-89.09h0a62.83,62.83,0,0,0-44.55-18.45Z" transform="translate(-114.38 -456.66)"/><path d="M501.94,673v18a45,45,0,1,1,0,90H285.56a45,45,0,1,1,0-90H501.94V673m0,0H285.56a63,63,0,0,0-63,63h0a63,63,0,0,0,63,63H501.94a63,63,0,0,0,63-63h0a63,63,0,0,0-63-63Z" transform="translate(-114.38 -456.66)"/><path d="M285.56,456.66v18a45,45,0,0,1,45,45V736a45,45,0,0,1-90,0V519.66a45,45,0,0,1,45-45v-18m0,0a63,63,0,0,0-63,63h0V736h0a63,63,0,0,0,63,63h0a63,63,0,0,0,63-63h0V519.66h0a63,63,0,0,0-63-63Z" transform="translate(-114.38 -456.66)"/><path d="M501.94,474.66h0a45,45,0,0,1,45,45V736a45,45,0,0,1-90,0V519.66a45,45,0,0,1,45-45m0-18a63,63,0,0,0-63,63h0V736h0a63,63,0,0,0,63,63h0a63,63,0,0,0,63-63h0V519.66h0a63,63,0,0,0-63-63Z" transform="translate(-114.38 -456.66)"/><line class="cls-1" x1="241.19" y1="425.75" x2="24.82" y2="209.37"/><line class="cls-1" x1="317.56" y1="425.75" x2="533.93" y2="209.37"/><line class="cls-1" x1="533.93" y1="133" x2="425.75" y2="24.82"/><rect x="436.98" y="666.57" width="9" height="18" transform="translate(492.63 -570.96) rotate(45)"/><rect x="449.71" y="679.3" width="9" height="18" transform="translate(505.36 -576.23) rotate(45)"/><path d="M285.56,474.66a44.7,44.7,0,0,1,31.82,13.18L425.57,596a45,45,0,0,1-63.64,63.64L253.74,551.48a45,45,0,0,1,31.82-76.82m0-18A62.83,62.83,0,0,0,241,475.11h0a63,63,0,0,0,0,89.09L349.2,672.39a63,63,0,0,0,89.1,0h0a63,63,0,0,0,0-89.09L330.11,475.11a62.8,62.8,0,0,0-44.55-18.45Z" transform="translate(-114.38 -456.66)"/><rect class="cls-2" x="344.77" y="664.64" width="9" height="9" transform="translate(461.08 -507.64) rotate(45)"/><rect class="cls-2" x="325.68" y="620.1" width="9" height="9" transform="translate(423.99 -507.19) rotate(45)"/></svg>