<svg id="Layer_1" data-name="Layer 1" xmlns="http://www.w3.org/2000/svg" viewBox="0 0 558.75 450.56"><defs><style>.cls-1{fill:none;stroke:#000;stroke-miterlimit:10;stroke-width:18px;}</style></defs><title>logo_new2</title><path d="M323.81,458.81a45,45,0,0,1,31.82,76.82L247.45,643.82a45,45,0,0,1-63.64-63.64L292,472a44.7,44.7,0,0,1,31.82-13.18m0-18a62.79,62.79,0,0,0-44.54,18.45L171.08,567.45a63,63,0,0,0,0,89.1h0a63,63,0,0,0,89.09,0L368.36,548.36a63,63,0,0,0,0-89.1h0a62.8,62.8,0,0,0-44.55-18.45Z" transform="translate(-152.63 -440.81)"/><path d="M648.37,567a45,45,0,1,1-31.82,13.18A44.69,44.69,0,0,1,648.37,567m0-18a62.79,62.79,0,0,0-44.54,18.45h0a63,63,0,0,0,0,89.1h0a63,63,0,0,0,89.09,0h0a63,63,0,0,0,0-89.1h0A62.8,62.8,0,0,0,648.37,549Z" transform="translate(-152.63 -440.81)"/><path d="M540.19,675.19A45,45,0,0,1,572,752L463.82,860.19a45,45,0,0,1-63.64-63.64L508.37,688.37a44.7,44.7,0,0,1,31.82-13.18m0-18a62.8,62.8,0,0,0-44.55,18.45L387.45,783.83a63,63,0,0,0,0,89.09h0a63,63,0,0,0,89.1,0L584.74,764.73a63,63,0,0,0,0-89.09h0a62.83,62.83,0,0,0-44.55-18.45Z" transform="translate(-152.63 -440.81)"/><path d="M540.19,458.81A45,45,0,0,1,572,535.63L355.63,752A45,45,0,0,1,292,688.37L508.37,472a44.7,44.7,0,0,1,31.82-13.18m0-18a62.8,62.8,0,0,0-44.55,18.45L279.26,675.64a63,63,0,0,0,0,89.1h0a63,63,0,0,0,89.09,0L584.74,548.36a63,63,0,0,0,0-89.1h0a62.79,62.79,0,0,0-44.54-18.45Z" transform="translate(-152.63 -440.81)"/><path d="M540.19,657.19v18a45,45,0,0,1,0,90H323.81a45,45,0,1,1,0-90H540.19v-18m0,0H323.81a63,63,0,0,0-63,63h0a63,63,0,0,0,63,63H540.19a63,63,0,0,0,63-63h0a63,63,0,0,0-63-63Z" transform="translate(-152.63 -440.81)"/><path d="M323.81,440.81v18a45,45,0,0,1,45,45V720.19a45,45,0,0,1-90,0V503.81a45.05,45.05,0,0,1,45-45v-18m0,0a63,63,0,0,0-63,63h0V720.19h0a63,63,0,0,0,63,63h0a63,63,0,0,0,63-63h0V503.81h0a63,63,0,0,0-63-63Z" transform="translate(-152.63 -440.81)"/><path d="M540.19,458.81h0a45.05,45.05,0,0,1,45,45V720.19a45,45,0,1,1-90,0V503.81a45,45,0,0,1,45-45m0-18a63,63,0,0,0-63,63h0V720.19h0a63,63,0,0,0,63,63h0a63,63,0,0,0,63-63h0V503.81h0a63,63,0,0,0-63-63Z" transform="translate(-152.63 -440.81)"/><line class="cls-1" x1="241.19" y1="425.75" x2="24.82" y2="209.37"/><line class="cls-1" x1="317.56" y1="425.75" x2="533.93" y2="209.37"/><line class="cls-1" x1="533.93" y1="133" x2="425.75" y2="24.82"/><rect x="475.23" y="650.73" width="9" height="18" transform="translate(454.38 -586.8) rotate(45)"/><rect x="487.96" y="663.46" width="9" height="18" transform="translate(467.11 -592.07) rotate(45)"/><path d="M323.81,458.81A44.7,44.7,0,0,1,355.63,472L463.82,580.18a45,45,0,0,1-63.64,63.64L292,535.63a45,45,0,0,1,31.82-76.82m0-18a62.83,62.83,0,0,0-44.55,18.45h0a63,63,0,0,0,0,89.09L387.45,656.55a63,63,0,0,0,89.1,0h0a63,63,0,0,0,0-89.1L368.36,459.26a62.8,62.8,0,0,0-44.55-18.45Z" transform="translate(-152.63 -440.81)"/></svg>