<svg id="레이어_1" data-name="레이어 1" xmlns="http://www.w3.org/2000/svg" viewBox="0 0 432 468"><defs><style>.cls-1,.cls-2{fill:#000;}.cls-2{opacity:0.75;}</style></defs><title>white svg</title><path class="cls-1" d="M756,630a126,126,0,0,0-216-88.17A126,126,0,0,0,324,630V738a36,36,0,0,0,72,0V630a54,54,0,0,1,108,0V738a36,36,0,0,0,72,0V630a54,54,0,0,1,108,0V738a36,36,0,0,0,72,0Z" transform="translate(-324 -306)"/><path class="cls-1" d="M396,342a36,36,0,0,0-72,0V738a36,36,0,0,0,72,0Z" transform="translate(-324 -306)"/><path class="cls-2" d="M324,630V738a36,36,0,0,0,72,0V516.13A126,126,0,0,0,324,630Z" transform="translate(-324 -306)"/><circle class="cls-1" cx="378" cy="126" r="54"/></svg>